name C:\Users\u0101727\Documents\MyRepositories\upper-imu-dc\Results\main_mocap_tracking\Case_4\kinematics.mot
datacolumns 15
datarows 28
range 1.00000000 1.27000000
endheader 
time	ground_thorax_rot_x	ground_thorax_rot_y	ground_thorax_rot_z	clav_prot	clav_elev	scapula_abduction	scapula_elevation	scapula_upward_rot	scapula_winging	plane_elv	shoulder_elv	axial_rot	elbow_flexion	pro_sup	
          1.00000000	          1.82880156	         -5.91807765	         -9.77286653	        -21.69188149	         -6.47770975	         -7.49802519	         -6.87286743	         17.91193197	          4.96357968	         36.66641739	         27.22963662	        -12.39947196	          0.38411424	         34.28531880	
          1.01000000	          1.82983827	         -5.93001420	         -9.79132858	        -21.68033488	         -6.47859078	         -7.47786584	         -6.87286673	         17.91193668	          4.96302985	         37.88091415	         27.90827070	        -14.27684006	          0.40166998	         34.28301306	
          1.02000000	          1.82319914	         -5.95234096	         -9.81285606	        -21.57110423	         -6.48692642	         -7.28715313	         -6.87286501	         17.91193803	          4.95763627	         38.87050859	         28.58753286	        -16.11928537	          0.34838338	         34.28895140	
          1.03000000	          1.80805206	         -5.98726805	         -9.83870689	        -21.38840035	         -6.50081970	         -6.96805878	         -6.87286552	         17.91193645	          4.94777518	         39.71351115	         29.26350305	        -17.91281698	          0.25166563	         34.30034402	
          1.04000000	          1.78431051	         -6.03557538	         -9.87040217	        -21.17920040	         -6.51664369	         -6.60253916	         -6.87286596	         17.91193559	          4.93518876	         40.54702382	         29.93327047	        -19.65491805	          0.13997844	         34.31324516	
          1.05000000	          1.75313623	         -6.09515290	         -9.90837323	        -20.98208191	         -6.53146919	         -6.25799025	         -6.87286445	         17.91193546	          4.92206350	         41.46467344	         30.59440781	        -21.32835412	          0.03663562	         34.32472835	
          1.06000000	          1.71665147	         -6.16155127	         -9.95176446	        -20.81444560	         -6.54401348	         -5.96487380	         -6.87286233	         17.91193575	          4.90993599	         42.48442826	         31.24472437	        -22.90582846	         -0.04301780	         34.33344060	
          1.07000000	          1.67685011	         -6.23050107	         -9.99927515	        -20.67549499	         -6.55436664	         -5.72184824	         -6.87285999	         17.91193667	          4.89921147	         43.57716955	         31.88318932	        -24.36532786	         -0.09405826	         34.33910119	
          1.08000000	          1.63497096	         -6.29939839	        -10.04982419	        -20.55423654	         -6.56336890	         -5.50971866	         -6.87285784	         17.91193845	          4.88935481	         44.69967162	         32.51025536	        -25.69491225	         -0.12022920	         34.34214067	
          1.09000000	          1.59153259	         -6.36724894	        -10.10273908	        -20.43715013	         -6.57203294	         -5.30484707	         -6.87285596	         17.91194095	          4.87939744	         45.81358545	         33.12728371	        -26.89138484	         -0.12911832	         34.34332682	
          1.10000000	          1.54660950	         -6.43404076	        -10.15769881	        -20.31305210	         -6.58118553	         -5.08766536	         -6.87285424	         17.91194367	          4.86837237	         46.89262853	         33.73584191	        -27.95766556	         -0.12794481	         34.34340376	
          1.11000000	          1.50007223	         -6.50019440	        -10.21462118	        -20.17505884	         -6.59132639	         -4.84611796	         -6.87285264	         17.91194623	          4.85554361	         47.92336796	         34.33734644	        -28.90042392	         -0.12163090	         34.34289187	
          1.12000000	          1.45173314	         -6.56622765	        -10.27355860	        -20.02059306	         -6.60263204	         -4.57567957	         -6.87285118	         17.91194864	          4.84047276	         48.90296805	         34.93301876	        -29.72824854	         -0.11272080	         34.34205764	
          1.13000000	          1.40142818	         -6.63256810	        -10.33460800	        -19.85033458	         -6.61503791	         -4.27752516	         -6.87285027	         17.91195108	          4.82299191	         49.83545838	         35.52395663	        -30.45035518	         -0.10217119	         34.34098542	
          1.14000000	          1.34907136	         -6.69943432	        -10.39783299	        -19.66682048	         -6.62834362	         -3.95608472	         -6.87284969	         17.91195394	          4.80312984	         50.72764237	         36.11118259	        -31.07584263	         -0.09031153	         34.33968791	
          1.15000000	          1.29469824	         -6.76675227	        -10.46320352	        -19.47318824	         -6.64231060	         -3.61684513	         -6.87285093	         17.91195696	          4.78102692	         51.58564933	         36.69564370	        -31.61349216	         -0.07764751	         34.33820802	
          1.16000000	          1.23849764	         -6.83411200	        -10.53056106	        -19.27223241	         -6.65672134	         -3.26469922	         -6.87284988	         17.91196095	          4.75684232	         52.41260054	         37.27819798	        -32.07195218	         -0.06541134	         34.33668944	
          1.17000000	          1.18082920	         -6.90076717	        -10.59961131	        -19.06581657	         -6.67144776	         -2.90291162	         -6.87285614	         17.91196312	          4.73068756	         53.20742531	         37.85963296	        -32.46007570	         -0.05588759	         34.33542063	
          1.18000000	          1.12223330	         -6.96566450	        -10.66993806	        -18.85454823	         -6.68640268	         -2.53255364	         -6.87284254	         17.91196873	          4.70252403	         53.96458656	         38.44068846	        -32.78720971	         -0.05239708	         34.33482988	
          1.19000000	          1.06344469	         -7.02744924	        -10.74102689	        -18.63812348	         -6.70168626	         -2.15308741	         -6.87287041	         17.91196375	          4.67225312	         54.67501316	         39.02211210	        -33.06340828	         -0.05906963	         34.33547323	
          1.20000000	          1.00542362	         -7.08444635	        -10.81228381	        -18.41579114	         -6.71716930	         -1.76322019	         -6.87281256	         17.91197227	          4.63957938	         55.32764621	         39.60457730	        -33.29905521	         -0.07993093	         34.33789858	
          1.21000000	          0.94943520	         -7.13443528	        -10.88302726	        -18.18891187	         -6.73308100	         -1.36530242	         -6.87291070	         17.91195306	          4.60474606	         55.91361232	         40.18860632	        -33.50472858	         -0.11804162	         34.34254743	
          1.22000000	          0.89713894	         -7.17447102	        -10.95244556	        -17.96186849	         -6.74848621	         -0.96711186	         -6.87270519	         17.91197446	          4.56809886	         56.42860450	         40.77394519	        -33.68834277	         -0.17278655	         34.34938822	
          1.23000000	          0.85061686	         -7.20055238	        -11.01955125	        -17.74681856	         -6.76386217	         -0.58978945	         -6.87316403	         17.91193588	          4.53229358	         56.87816123	         41.35907009	        -33.85846356	         -0.23882531	         34.35743550	
          1.24000000	          0.81242121	         -7.20756198	        -11.08303052	        -17.56208264	         -6.77500570	         -0.26596597	         -6.87207276	         17.91200040	          4.49953001	         57.27887225	         41.93930176	        -34.01487672	         -0.29913696	         34.36441884	
          1.25000000	          0.78492116	         -7.18963455	        -11.14133261	        -17.44150952	         -6.78478014	         -0.05418986	         -6.87325563	         17.91192006	          4.47866881	         57.66205742	         42.50377278	        -34.16005296	         -0.32023672	         34.36548268	
          1.26000000	          0.77372517	         -7.14004437	        -11.19085575	        -17.39095417	         -6.63538882	          0.00479583	         -6.75707116	         17.91198077	          4.40614303	         58.19391653	         43.05992675	        -34.29432323	         -0.24797268	         34.35719249	
          1.27000000	          0.77571015	         -7.06812907	        -11.23142795	        -17.35457639	         -6.28690536	         -0.00059538	         -6.49038065	         17.91194463	          4.25696193	         58.84055032	         43.61833295	        -34.39855708	         -0.09547049	         34.34009338	
